<svg width="13" height="14" viewBox="0 0 13 14" fill="none" xmlns="http://www.w3.org/2000/svg">
<path d="M6.18678 7.11963L11.6473 1.8926C11.726 1.81393 11.7797 1.71366 11.8014 1.60449C11.8231 1.49532 11.812 1.38215 11.7694 1.27931C11.7268 1.17647 11.6546 1.08859 11.562 1.02679C11.4694 0.964984 11.3606 0.932041 11.2493 0.932129H1.12428C1.01308 0.932319 0.904439 0.965463 0.812071 1.02737C0.719702 1.08928 0.647755 1.17718 0.605318 1.27996C0.562882 1.38274 0.55186 1.49579 0.573646 1.60483C0.595431 1.71388 0.649047 1.81401 0.727719 1.8926L6.18678 7.11963ZM6.18678 7.11963L11.6473 12.3467C11.726 12.4253 11.7797 12.5256 11.8014 12.6348C11.8231 12.7439 11.812 12.8571 11.7694 12.9599C11.7268 13.0628 11.6546 13.1507 11.562 13.2125C11.4694 13.2743 11.3606 13.3072 11.2493 13.3071H1.12428C1.01308 13.3069 0.904439 13.2738 0.812071 13.2119C0.719702 13.15 0.647755 13.0621 0.605318 12.9593C0.562882 12.8565 0.55186 12.7435 0.573646 12.6344C0.595431 12.5254 0.649047 12.4252 0.727719 12.3467L6.18678 7.11963ZM6.18678 7.11963L6.18677 9.93213M9.7114 3.74463H2.66187" stroke="#121212" stroke-width="0.84375" stroke-linecap="round" stroke-linejoin="round"></path>
</svg>
