<svg width="14" height="14" viewBox="0 0 14 14" fill="none" xmlns="http://www.w3.org/2000/svg">
<path d="M6.99999 4.25006V6.85876M6.99999 6.85876L4.3913 5.81528M6.99999 6.85876L5.43478 8.94572M6.99999 6.85876L8.56521 8.94572M6.99999 6.85876L9.60869 5.81528M12.7391 5.29354V1.64137C12.7391 1.50299 12.6842 1.37029 12.5863 1.27244C12.4885 1.1746 12.3558 1.11963 12.2174 1.11963H1.7826C1.64423 1.11963 1.51152 1.1746 1.41368 1.27244C1.31583 1.37029 1.26086 1.50299 1.26086 1.64137V5.29354C1.26086 11.5544 6.99999 13.1196 6.99999 13.1196C6.99999 13.1196 12.7391 11.5544 12.7391 5.29354Z" stroke="#121212" stroke-width="0.84" stroke-linecap="round" stroke-linejoin="round"></path>
</svg>
